{"title":"Rubber 2010 DVD9rip English Klam","uid":6511436,"size":1294659395,"categoryP":"video","categoryS":"movies","magnet":"?xt=urn:btih:52ded0c3ae64dd11548c4dd7124e623e1c78ebf8&amp;dn=Rubber+2010+DVD9rip+English+Klam&amp;tr=udp%3A%2F%2Ftracker.openbittorrent.com%3A80&amp;tr=udp%3A%2F%2Fopen.demonii.com%3A1337&amp;tr=udp%3A%2F%2Ftracker.coppersurfer.tk%3A6969&amp;tr=udp%3A%2F%2Fexodus.desync.com%3A6969","seeders":1,"leechers":0,"uploader":"Klambake","files":-1,"time":1309638022,"description":"[img] http://img717.imageshack.us/img717/4296/66155d.jpg[/img]\n\nWith: Thomas F. Duffy, Haley Ramm and Jack Plotnick\n\nRobert, een autoband die achtergelaten is in de woestijn, komt plotseling tot leven zonder enige reden. Robert ontwikkelt al snel een telepathische gave wat hem in staat stelt om alles te vernietigen wat hij wil.\n\nWhen Robert, a tire, discovers his destructive telepathic powers, he soon sets his sights on a desert town; in particular, a mysterious woman becomes his obsession. \n\n------------------ Dutch Friends ------------------\nYou can find my Friends at: http://www.Film-Test.nl \n------ They got my dutchs subs ---- and more ------\n\nGeneral:\n\nComplete name                    : Rubber\\Rubber.avi\nFormat                           : AVI\nFormat/Info                      : Audio Video Interleave\nFile size                        : 1.20 GiB\nDuration                         : 1h 18mn\nOverall bit rate                 : 2 173 Kbps\n\nVideo:\n\nFormat                           : MPEG-4 Visual\nFormat profile                   : Simple@L3\nFormat settings, BVOP            : No\nFormat settings, QPel            : No\nFormat settings, GMC             : No warppoints\nFormat settings, Matrix          : Default (H.263)\nCodec ID                         : XVID\nCodec ID/Hint                    : XviD\nDuration                         : 1h 18mn\nBit rate                         : 1 714 Kbps\nWidth                            : 652 pixels\nHeight                           : 352 pixels\nDisplay aspect ratio             : 1.852\nFrame rate                       : 25.000 fps\nColor space                      : YUV\nChroma subsampling               : 4:2:0\nBit depth                        : 8 bits\nScan type                        : Progressive\nBits/(Pixel*Frame)               : 0.299\nStream size                      : 967 MiB (79%)\nWriting library                  : XviD 1.1.2 (UTC 2006-11-01)\n\nAudio:\n\nFormat                           : AC-3\nFormat/Info                      : Audio Coding 3\nMode extension                   : CM (complete main)\nCodec ID                         : 2000\nDuration                         : 1h 18mn\nBit rate mode                    : Constant\nBit rate                         : 448 Kbps\nChannel(s)                       : 6 channels\nChannel positions                : Front: L C R, Side: L R, LFE\nSampling rate                    : 48.0 KHz\nBit depth                        : 16 bits\nStream size                      : 253 MiB (21%)\nAlignment                        : Aligned on interleaves\nInterleave, duration             : 32 ms (0.80 video frame)\nInterleave, preload duration     : 320 ms\n\n\n","torrent":{"xt":"urn:btih:52ded0c3ae64dd11548c4dd7124e623e1c78ebf8","amp;dn":"Rubber+2010+DVD9rip+English+Klam","amp;tr":["udp%3A%2F%2Ftracker.openbittorrent.com%3A80","udp%3A%2F%2Fopen.demonii.com%3A1337","udp%3A%2F%2Ftracker.coppersurfer.tk%3A6969","udp%3A%2F%2Fexodus.desync.com%3A6969"],"infoHash":"52ded0c3ae64dd11548c4dd7124e623e1c78ebf8","infoHashBuffer":{"type":"Buffer","data":[82,222,208,195,174,100,221,17,84,140,77,215,18,78,98,62,28,120,235,248]},"announce":[],"urlList":[]}}